<?xml version="1.0" encoding="utf-8"?>
<COLLADA xmlns="http://www.collada.org/2005/11/COLLADASchema" version="1.4.1">

  <asset>
    <contributor>
      <authoring_tool>AssetKit v0.7.3 by AssetKit Blender v0.3.0</authoring_tool>
    </contributor>
    <created>2026-09-11T06:10:52Z</created>
    <modified>2026-09-11T06:10:52Z</modified>
    <unit name="meter" meter="1"/>
    <up_axis>Z_UP</up_axis>
  </asset>

  <library_images>
    <image id="image_0">
      <init_from>../materials/textures/atlas.png</init_from>
    </image>
  </library_images>

  <library_effects>
    <effect id="effect_0">
      <profile_COMMON>
        <newparam sid="surface_0">
          <surface type="2D">
            <init_from>image_0</init_from>
          </surface>
        </newparam>
        <newparam sid="sampler_0">
          <sampler2D>
            <source>surface_0</source>
            <wrap_s>WRAP</wrap_s>
            <wrap_t>WRAP</wrap_t>
            <wrap_p>WRAP</wrap_p>
            <minfilter>LINEAR_MIPMAP_LINEAR</minfilter>
            <magfilter>LINEAR</magfilter>
          </sampler2D>
        </newparam>
        <technique sid="common">
          <lambert>
            <diffuse>
              <texture texture="sampler_0" texcoord="TEXCOORD0"/>
            </diffuse>
          </lambert>
        </technique>
      </profile_COMMON>
      <extra>
        <technique profile="MAX3D">
          <double_sided>1</double_sided>
        </technique>
      </extra>
    </effect>
  </library_effects>

  <library_materials>
    <material id="material_0" name="Material.001">
      <instance_effect url="#effect_0"/>
    </material>
  </library_materials>
  
  <library_geometries>
    <geometry id="geom_0" name="Cube">
      <mesh>
        <source id="geom_0_prim_0_TEXCOORD_0">
          <float_array id="geom_0_prim_0_TEXCOORD_0_array" count="48">0.000499984 1 0.333499998 1 0.333499998 0.5 0.000499984 0.5 0.666500032 0.5 0.999500036 0.5 0.999500036 0 0.666500032 0 0.333350033 0.5 0.666649997 0.5 0.666649997 0 0.333350033 0 0.333499998 1 0.666500032 1 0.666500032 0.5 0.333499998 0.5 0.666350067 1 0.999650002 1 0.999650002 0.5 0.666350067 0.5 0.000499984 0.5 0.333499998 0.5 0.333499998 0 0.000499984 0</float_array>
          <technique_common>
            <accessor source="#geom_0_prim_0_TEXCOORD_0_array" count="24" stride="2">
              <param name="S" type="float"/>
              <param name="T" type="float"/>
            </accessor>
          </technique_common>
        </source>
        <source id="geom_0_prim_0_NORMAL_1">
          <float_array id="geom_0_prim_0_NORMAL_1_array" count="72">-1 0 0 -1 0 0 -1 0 0 -1 0 0 0 1 0 0 1 0 0 1 0 0 1 0 1 0 0 1 0 0 1 0 0 1 0 0 0 -1 0 0 -1 0 0 -1 0 0 -1 0 0 0 -1 0 0 -1 0 0 -1 0 0 -1 0 0 1 0 0 1 0 0 1 0 0 1</float_array>
          <technique_common>
            <accessor source="#geom_0_prim_0_NORMAL_1_array" count="24" stride="3">
              <param name="X" type="float"/>
              <param name="Y" type="float"/>
              <param name="Z" type="float"/>
            </accessor>
          </technique_common>
        </source>
        <source id="geom_0_prim_0_POSITION_2">
          <float_array id="geom_0_prim_0_POSITION_2_array" count="72">-0.050000001 -0.050000001 -0.050000001 -0.050000001 -0.050000001 0.050000001 -0.050000001 0.050000001 0.050000001 -0.050000001 0.050000001 -0.050000001 -0.050000001 0.050000001 -0.050000001 -0.050000001 0.050000001 0.050000001 0.050000001 0.050000001 0.050000001 0.050000001 0.050000001 -0.050000001 0.050000001 0.050000001 -0.050000001 0.050000001 0.050000001 0.050000001 0.050000001 -0.050000001 0.050000001 0.050000001 -0.050000001 -0.050000001 0.050000001 -0.050000001 -0.050000001 0.050000001 -0.050000001 0.050000001 -0.050000001 -0.050000001 0.050000001 -0.050000001 -0.050000001 -0.050000001 -0.050000001 0.050000001 -0.050000001 0.050000001 0.050000001 -0.050000001 0.050000001 -0.050000001 -0.050000001 -0.050000001 -0.050000001 -0.050000001 0.050000001 0.050000001 0.050000001 -0.050000001 0.050000001 0.050000001 -0.050000001 -0.050000001 0.050000001 0.050000001 -0.050000001 0.050000001</float_array>
          <technique_common>
            <accessor source="#geom_0_prim_0_POSITION_2_array" count="24" stride="3">
              <param name="X" type="float"/>
              <param name="Y" type="float"/>
              <param name="Z" type="float"/>
            </accessor>
          </technique_common>
        </source>
        <vertices id="geom_0_prim_0_vertices">
          <input semantic="POSITION" source="#geom_0_prim_0_POSITION_2"/>
        </vertices>
        <triangles count="12" material="mat_0">
          <input semantic="VERTEX" source="#geom_0_prim_0_vertices" offset="0"/>
          <input semantic="TEXCOORD" source="#geom_0_prim_0_TEXCOORD_0" offset="1" set="0"/>
          <input semantic="NORMAL" source="#geom_0_prim_0_NORMAL_1" offset="2"/>
          <p>0 0 0 1 1 1 2 2 2 0 0 0 2 2 2 3 3 3 4 4 4 5 5 5 6 6 6 4 4 4 6 6 6 7 7 7 8 8 8 9 9 9 10 10 10 8 8 8 10 10 10 11 11 11 12 12 12 13 13 13 14 14 14 12 12 12 14 14 14 15 15 15 16 16 16 17 17 17 18 18 18 16 16 16 18 18 18 19 19 19 20 20 20 21 21 21 22 22 22 20 20 20 22 22 22 23 23 23</p>
        </triangles>
      </mesh>
    </geometry>
  </library_geometries>

  <library_visual_scenes>
    <visual_scene id="scene_0" name="box_clear.dae">
      <node id="node_0" name="Cube">
        <matrix sid="matrix">1 0 0 0 0 1 0 0 0 0 1 0 0 0 0 1</matrix>
        <instance_geometry url="#geom_0">
          <bind_material>
            <technique_common>
              <instance_material symbol="mat_0" target="#material_0">
                <bind_vertex_input semantic="TEXCOORD0" input_semantic="TEXCOORD" input_set="0"/>
              </instance_material>
            </technique_common>
          </bind_material>
        </instance_geometry>
      </node>
    </visual_scene>
  </library_visual_scenes>

  <scene>
    <instance_visual_scene url="#scene_0"/>
  </scene>
</COLLADA>
